<svg width="11" height="20" viewBox="0 0 11 20" fill="none" xmlns="http://www.w3.org/2000/svg">
<path d="M10.7218 0H7.04705C7.03842 0 7.03007 0.000278022 7.02199 0.00111392C3.31189 0.0128166 2.82734 2.60495 2.82539 4.87053C2.82038 4.8917 2.8176 4.91344 2.8176 4.93601V6.52645H0.278474C0.124756 6.52645 0 6.65128 0 6.80509V10.7274C0 10.8815 0.124756 11.0061 0.278474 11.0061H2.8176V19.6133C2.8176 19.7674 2.94235 19.892 3.09607 19.892H6.80172C6.95571 19.892 7.08019 19.7674 7.08019 19.6133V11.0063H10.7215C10.8755 11.0063 11 10.8818 11 10.7277V6.80536C11 6.65156 10.8755 6.52673 10.7215 6.52673H6.80172V4.4183H10.7215C10.8755 4.4183 11 4.29348 11 4.13967V0.278634C11.0003 0.124828 10.8755 0 10.7218 0Z" fill="black"/>
</svg>
