<svg width="19" height="23" viewBox="0 0 19 23" fill="none" xmlns="http://www.w3.org/2000/svg">
<path d="M17.4502 0C17.4502 0 15.9462 0 14.4186 2.29071C13.6627 1.53406 11.3641 1.5269 10.6024 1.5269C9.8379 1.5269 7.54074 1.53406 6.78409 2.29071C5.25647 0 3.75605 0 3.75605 0C2.93927 2.05019 3.57852 3.44108 3.73243 3.81762C2.96934 4.58143 2.20266 5.34523 2.20266 9.16285C2.20266 12.9805 4.97872 14.8954 8.31457 15.2712C7.88578 15.6441 7.55076 16.7981 7.55076 17.5619C6.69389 17.9434 4.3094 18.31 2.96934 16.035C2.96934 16.035 2.20553 14.5081 0.678624 14.5081C0.678624 14.5081 -0.84828 14.3642 0.678624 15.2719C0.678624 15.2719 1.44243 16.0357 2.20553 17.5626C2.20553 17.5626 3.37164 20.7524 7.55076 19.8533C7.55935 21.0953 7.55076 22.9078 7.55076 22.9078H13.6555V17.5626C13.6555 16.9584 13.3219 15.6441 12.8917 15.2719C16.2276 14.8961 19 12.9812 19 9.16357C19 5.34595 18.2362 4.58214 17.4731 3.81833C17.6285 3.44108 18.2663 2.05019 17.4502 0V0Z" fill="black"/>
</svg>
